<?xml version="1.0" standalone="no"?>
<!DOCTYPE svg PUBLIC "-//W3C//DTD SVG 20010904//EN"
 "http://www.w3.org/TR/2001/REC-SVG-20010904/DTD/svg10.dtd">
<svg version="1.0" xmlns="http://www.w3.org/2000/svg"
 width="512.000000pt" height="512.000000pt" viewBox="0 0 512.000000 512.000000"
 preserveAspectRatio="xMidYMid meet">
<metadata>
Created by potrace 1.11, written by Peter Selinger 2001-2013
</metadata>
<g transform="translate(0.000000,512.000000) scale(0.100000,-0.100000)"
fill="#000000" stroke="none">
<path d="M2545 5105 c-16 -9 -40 -26 -53 -38 -24 -22 -145 -213 -347 -547
-143 -237 -149 -246 -173 -290 -10 -19 -58 -103 -105 -186 -134 -236 -329
-607 -453 -861 -63 -128 -114 -235 -114 -237 0 -3 -18 -42 -39 -88 -80 -171
-111 -240 -111 -249 0 -5 -4 -17 -10 -27 -23 -42 -130 -301 -177 -432 -30 -84
-80 -289 -97 -405 -4 -22 -9 -112 -12 -200 -25 -644 261 -1124 813 -1369 152
-68 293 -107 498 -139 148 -24 200 -28 420 -32 207 -4 345 8 480 40 39 9 80
19 92 21 138 27 428 169 556 273 246 199 395 421 482 717 15 49 29 103 32 119
3 17 11 66 18 110 14 77 14 407 1 480 -3 17 -10 62 -15 100 -30 199 -81 405
-158 640 -33 100 -110 311 -132 360 -5 11 -26 61 -46 110 -21 50 -52 122 -70
160 -18 39 -42 93 -55 120 -29 65 -210 427 -220 440 -4 6 -31 55 -60 110 -112
210 -376 659 -523 890 -39 61 -70 116 -70 123 0 6 -4 12 -8 12 -4 0 -42 57
-85 126 -43 70 -89 134 -102 142 -35 23 -121 27 -157 7z"/>
</g>
</svg>
